<?xml version="1.0" encoding="UTF-8"?>
<!-- Generator: visioncortex VTracer 0.6.4 -->
<svg version="1.1" xmlns="http://www.w3.org/2000/svg" viewBox="0 0 800 429">
<path d="M0,0 L106,0 L119,3 L133,10 L141,16 L148,24 L154,32 L159,44 L162,57 L163,215 L175,224 L184,233 L191,243 L198,260 L200,274 L200,286 L197,301 L192,313 L186,323 L177,333 L169,340 L157,347 L146,351 L129,354 L116,353 L100,349 L86,342 L83,341 L71,347 L59,351 L46,353 L25,353 L6,350 L2,349 L-3,351 L-50,352 L-56,353 L-73,353 L-89,349 L-102,343 L-116,349 L-132,353 L-141,354 L-159,354 L-177,350 L-191,345 L-205,336 L-214,328 L-221,343 L-227,354 L-234,363 L-242,371 L-256,379 L-269,383 L-276,384 L-292,384 L-306,381 L-319,376 L-329,369 L-335,362 L-338,354 L-338,351 L-453,351 L-463,346 L-471,337 L-474,329 L-474,202 L-473,75 L-470,67 L-464,59 L-458,55 L-449,52 L-381,52 L-364,54 L-354,58 L-338,66 L-325,77 L-325,79 L-292,79 L-291,69 L-287,59 L-281,50 L-273,43 L-259,36 L-254,35 L-233,35 L-220,39 L-211,45 L-206,50 L-200,58 L-196,68 L-194,78 L-123,78 L-118,69 L-110,62 L-102,58 L-56,58 L-55,57 L-52,43 L-45,29 L-40,22 L-38,22 L-36,18 L-34,18 L-33,15 L-19,6 L-9,2 Z " fill="#9F229A" transform="translate(537,16)"/>
<path d="M0,0 L104,0 L113,4 L122,11 L128,19 L131,28 L131,197 L117,198 L106,201 L96,205 L85,212 L78,206 L67,201 L52,198 L27,198 L15,201 L1,208 L-7,217 L-8,219 L-10,219 L-16,211 L-25,204 L-29,202 L-29,33 L-27,23 L-21,13 L-14,6 L-5,1 Z " fill="#FEFDFE" transform="translate(539,45)"/>
<path d="M0,0 L26,0 L38,19 L52,42 L64,61 L64,63 L66,63 L68,58 L81,36 L96,11 L103,0 L130,0 L130,112 L100,112 L99,57 L93,66 L77,93 L72,101 L57,101 L40,73 L31,59 L31,57 L29,57 L29,112 L0,112 Z " fill="#FDFCFD" transform="translate(92,227)"/>
<path d="M0,0 L68,0 L83,4 L96,13 L102,20 L107,30 L108,34 L108,54 L103,67 L94,77 L84,83 L73,87 L68,88 L34,88 L34,119 L0,119 Z " fill="#FDFBFD" transform="translate(92,97)"/>
<path d="M0,0 L15,0 L25,3 L33,8 L40,15 L44,23 L46,33 L46,95 L13,95 L12,40 L9,33 L5,30 L2,29 L-5,29 L-12,31 L-17,37 L-19,44 L-20,95 L-53,95 L-53,2 L-21,2 L-21,9 L-7,2 Z " fill="#FDFBFD" transform="translate(378,122)"/>
<path d="M0,0 L26,0 L39,4 L50,10 L60,19 L59,23 L44,37 L40,39 L31,31 L24,28 L11,27 L1,29 L-8,35 L-14,45 L-15,49 L-15,66 L-11,76 L-6,81 L-2,85 L6,88 L22,88 L32,84 L40,77 L44,79 L49,84 L54,87 L60,94 L59,98 L50,106 L36,113 L24,116 L5,116 L-7,114 L-19,109 L-28,103 L-35,97 L-42,87 L-46,79 L-49,65 L-49,50 L-46,37 L-41,27 L-34,18 L-25,10 L-11,3 Z " fill="#FDFBFD" transform="translate(376,225)"/>
<path d="M0,0 L26,0 L39,4 L47,10 L53,17 L57,27 L58,34 L58,88 L29,88 L28,80 L21,86 L12,89 L-4,89 L-13,87 L-21,81 L-26,75 L-29,67 L-29,58 L-26,50 L-20,43 L-12,39 L-5,37 L3,36 L26,35 L23,28 L18,25 L13,24 L5,24 L-8,27 L-13,30 L-16,29 L-25,11 L-25,9 L-15,4 Z " fill="#FDFAFD" transform="translate(469,251)"/>
<path d="M0,0 L32,0 L37,13 L42,24 L52,49 L54,50 L55,45 L61,31 L67,15 L73,1 L74,0 L103,0 L100,9 L81,55 L76,67 L69,84 L62,99 L54,110 L43,117 L34,119 L17,119 L6,115 L2,112 L3,107 L12,90 L22,94 L29,94 L34,91 L36,87 L31,74 L26,63 L14,34 L9,23 L0,2 Z " fill="#FDFBFD" transform="translate(226,252)"/>
<path d="M0,0 L21,0 L32,3 L45,12 L51,20 L55,28 L57,35 L57,52 L-5,53 L-2,59 L3,63 L11,65 L18,65 L29,62 L33,59 L37,60 L45,68 L50,74 L48,78 L40,84 L30,88 L25,89 L2,89 L-11,85 L-21,79 L-29,71 L-36,57 L-37,53 L-37,36 L-34,26 L-27,15 L-18,7 L-8,2 Z " fill="#FDFCFD" transform="translate(655,251)"/>
<path d="M0,0 L33,0 L33,24 L54,24 L54,49 L34,50 L34,84 L38,88 L48,88 L52,87 L57,99 L60,107 L59,111 L51,114 L45,115 L27,115 L14,110 L6,103 L2,95 L0,90 L0,49 L-14,49 L-14,24 L0,24 Z " fill="#FDFAFD" transform="translate(442,103)"/>
<path d="M0,0 L15,1 L32,5 L36,8 L33,17 L28,28 L19,26 L12,24 L-6,24 L-10,26 L-9,31 L-4,33 L15,36 L29,41 L34,44 L39,54 L40,64 L37,73 L32,80 L22,86 L14,89 L7,90 L-13,90 L-27,88 L-40,83 L-41,78 L-33,60 L-20,65 L-10,67 L5,67 L10,66 L10,61 L7,59 L-21,54 L-31,49 L-36,44 L-40,37 L-40,23 L-35,13 L-27,7 L-19,3 L-10,1 Z " fill="#FDFBFD" transform="translate(576,250)"/>
<path d="M0,0 L9,0 L9,30 L-2,30 L-11,32 L-16,36 L-19,42 L-20,48 L-21,95 L-54,95 L-54,2 L-22,2 L-22,10 L-11,3 Z " fill="#FDFAFC" transform="translate(263,122)"/>
<path d="M0,0 L36,0 L44,4 L49,12 L49,54 L44,62 L38,66 L34,67 L2,67 L-6,63 L-10,58 L-12,51 L-12,13 L-7,5 L-2,1 Z " fill="#9F219B" transform="translate(540,63)"/>
<path d="M0,0 L33,0 L33,93 L0,93 Z " fill="#FDFAFD" transform="translate(277,124)"/>
<path d="M0,0 L26,0 L34,5 L37,10 L38,20 L35,28 L30,32 L24,34 L-1,34 L-1,1 Z " fill="#AF3AAB" transform="translate(128,124)"/>
<path d="M0,0 L13,0 L19,2 L26,8 L27,10 L27,23 L23,29 L18,33 L13,35 L3,35 L-5,32 L-11,25 L-12,22 L-12,11 L-8,5 Z " fill="#FDFAFD" transform="translate(286,79)"/>
<path d="M0,0 L7,0 L14,3 L19,8 L21,15 L-14,15 L-12,9 L-7,3 Z " fill="#CB64C6" transform="translate(662,272)"/>
<path d="M0,0 L18,0 L18,9 L14,15 L8,18 L0,18 L-6,15 L-8,12 L-8,6 L-3,1 Z " fill="#CA64C5" transform="translate(478,303)"/>
</svg>
